<?xml version="1.0" encoding="utf-8"?>
<svg width="24" height="24" viewBox="0 0 24 24" fill="none" stroke="currentColor" stroke-width="2" stroke-linecap="round" stroke-linejoin="round" class="lucide lucide-cookie" xmlns="http://www.w3.org/2000/svg">
  <defs>
    <linearGradient gradientUnits="userSpaceOnUse" x1="12" y1="2" x2="12" y2="22" id="gradient-0">
      <stop offset="0" style="stop-color: rgb(100% 69.804% 27.843%)"/>
      <stop offset="1" style="stop-color: rgb(62.869% 37.734% 0%)"/>
    </linearGradient>
    <linearGradient gradientUnits="userSpaceOnUse" x1="12.019" y1="12.233" x2="12.019" y2="22.233" id="gradient-1">
      <stop offset="0" style="stop-color: rgb(31.765% 61.961% 99.608%)"/>
      <stop offset="1" style="stop-color: rgb(0% 37.103% 68.876%)"/>
    </linearGradient>
  </defs>
  <path d="M12 2a10 10 0 1 0 10 10 4 4 0 0 1-5-5 4 4 0 0 1-5-5" style="paint-order: fill; fill: url('#gradient-0'); stroke-width: 1.2px; stroke: rgb(255, 255, 255);"/>
  <path style="transform-box: fill-box; transform-origin: 50% 50%; stroke-width: 1px; fill: url('#gradient-1'); stroke: rgb(255, 255, 255);" d="M 2.019 22.233 C 2.019 16.71 6.496 12.233 12.021 12.233 C 17.542 12.233 22.019 16.71 22.019 22.233 L 12.021 22.233 L 2.019 22.233 Z" transform="matrix(-1, 0, 0, -1, -0.000001, 0)"/>
  <path d="M 7.076 8.064 L 7.076 8.074"/>
  <path d="M 11.884 9.996 L 11.884 10.006"/>
  <path style="stroke-width: 1px; stroke: rgb(255, 255, 255);" d="M 12.392 22.069 C 15.414 17.701 16.809 14.434 16.576 12.269"/>
  <path style="stroke-width: 1px; transform-box: fill-box; transform-origin: 50% 50%; stroke: rgb(255, 255, 255);" d="M 7.441 12.414 C 10.463 16.782 11.858 20.049 11.625 22.214" transform="matrix(-1, 0, 0, -1, 0, 0.000003)"/>
</svg>